<?xml version="1.0" encoding="utf-8"?>
<!-- Generator: Adobe Illustrator 24.0.1, SVG Export Plug-In . SVG Version: 6.00 Build 0)  -->
<svg version="1.1" id="Layer_1" xmlns="http://www.w3.org/2000/svg" xmlns:xlink="http://www.w3.org/1999/xlink" x="0px" y="0px"
	 viewBox="0 0 34 34" style="enable-background:new 0 0 34 34;" xml:space="preserve">
<style type="text/css">
	.st0{fill:#1E282C;}
</style>
<path class="st0" d="M29.5,9h-25C2.02,9,0,6.98,0,4.5v0C0,2.02,2.02,0,4.5,0h25C31.98,0,34,2.02,34,4.5v0C34,6.98,31.98,9,29.5,9z"
	/>
<path class="st0" d="M29.5,21h-25C2.02,21,0,18.98,0,16.5v0C0,14.02,2.02,12,4.5,12h25c2.47,0,4.5,2.02,4.5,4.5v0
	C34,18.98,31.98,21,29.5,21z"/>
<path class="st0" d="M29.5,34h-25C2.02,34,0,31.98,0,29.5v0C0,27.02,2.02,25,4.5,25h25c2.47,0,4.5,2.02,4.5,4.5v0
	C34,31.98,31.98,34,29.5,34z"/>
</svg>
